Coordinates
version=1
nRows=5
nColumns=63
inDegrees=yes

Units are S.I. units (second, meters, Newtons, ...)
If the header above contains a line with 'inDegrees', this indicates whether rotational values are in degrees (yes) or radians (no).

endheader
time	pelvis_tilt	pelvis_list	pelvis_rotation	pelvis_tx	pelvis_ty	pelvis_tz	hip_flexion_r	hip_adduction_r	hip_rotation_r	knee_angle_r	knee_angle_r_beta	ankle_angle_r	subtalar_angle_r	mtp_angle_r	hip_flexion_l	hip_adduction_l	hip_rotation_l	knee_angle_l	knee_angle_l_beta	ankle_angle_l	subtalar_angle_l	mtp_angle_l	L5_S1_Flex_Ext	L5_S1_Lat_Bending	L5_S1_axial_rotation	L4_L5_Flex_Ext	L4_L5_Lat_Bending	L4_L5_axial_rotation	L3_L4_Flex_Ext	L3_L4_Lat_Bending	L3_L4_axial_rotation	L2_L3_Flex_Ext	L2_L3_Lat_Bending	L2_L3_axial_rotation	L1_L2_Flex_Ext	L1_L2_Lat_Bending	L1_L2_axial_rotation	L1_T12_Flex_Ext	L1_T12_Lat_Bending	L1_T12_axial_rotation	Abs_r3	Abs_r2	Abs_r1	Abs_t1	Abs_t2	neck_flexion	neck_bending	neck_rotation	arm_flex_r	arm_add_r	arm_rot_r	elbow_flex_r	pro_sup_r	wrist_flex_r	wrist_dev_r	arm_flex_l	arm_add_l	arm_rot_l	elbow_flex_l	pro_sup_l	wrist_flex_l	wrist_dev_l
      2.91525424	     -1.99998430	      3.60048175	     82.71393575	      0.21337975	      0.71868184	      0.66006193	     11.14956732	     -0.04892094	      2.54877117	     31.38525865	      0.54777610	     28.38765544	    -13.53614575	      0.00000000	      8.51468047	     -1.30315542	     -5.94929194	     29.69010400	      0.51819007	     21.39951310	     -6.70218078	      0.00000000	     -0.04205612	     -0.08004022	      0.66322586	     -0.07810242	     -0.10645349	      0.70467748	     -0.06909399	     -0.19460978	      0.70467748	     -0.04806594	     -0.19460978	      0.58032263	     -0.03905331	     -0.16321801	      0.53887101	     -0.02403087	     -0.12398230	      0.49741940	     -0.30040264	     -0.90543094	      3.68866328	      0.00000000	      0.00000000	      7.09309653	      1.30647691	      6.74062948	     17.78213035	     -0.16082887	     71.17955957	    111.29359791	     71.05844495	     -2.61365158	     27.15444495	     21.02822277	      3.54033467	     74.56806268	    118.29501669	     79.44579190	      3.16641045	     31.66090434
      2.93220339	     -2.22484625	      3.55085376	     83.58945436	      0.21106749	      0.72062312	      0.66097123	     10.38409105	     -0.56382754	      1.54312441	     29.73065792	      0.51889787	     27.62677133	    -13.40618569	      0.00000000	      7.92369529	     -0.75599470	     -5.28166086	     28.13230300	      0.49100131	     19.61799758	     -7.33312827	      0.00000000	     -0.04063620	     -0.08846468	      0.52087482	     -0.07546550	     -0.11765802	      0.55342950	     -0.06676122	     -0.21509301	      0.55342950	     -0.04644312	     -0.21509301	      0.45576547	     -0.03773478	     -0.18039717	      0.42321079	     -0.02321953	     -0.13703178	      0.39065612	     -0.29026035	     -1.00073010	      2.89694951	      0.00000000	      0.00000000	      7.27487177	      0.91336074	      6.50019107	     18.53067375	     -0.26997517	     72.13538760	    111.27691646	     71.52360652	     -5.23145440	     26.31150092	     22.06919962	      3.47354350	     74.46460403	    118.25584483	     77.91438021	      3.57976925	     31.43547426
      2.94915254	     -2.48092211	      3.47773000	     84.45307223	      0.20872410	      0.72262795	      0.66217779	      9.63562986	     -1.08768188	      0.58916926	     28.07311936	      0.48996836	     26.89956476	    -13.11882013	      0.00000000	      7.34102844	     -0.17107322	     -4.54515400	     26.57947261	      0.46389931	     17.51081515	     -8.33063561	      0.00000000	     -0.03730232	     -0.10515219	      0.43108533	     -0.06927414	     -0.13985241	      0.45802817	     -0.06128398	     -0.25566702	      0.45802817	     -0.04263282	     -0.25566702	      0.37719967	     -0.03463894	     -0.21442634	      0.35025683	     -0.02131455	     -0.16288073	      0.32331400	     -0.26644675	     -1.18950255	      2.39756730	      0.00000000	      0.00000000	      7.36907984	      0.52174924	      5.82461685	     19.47107455	     -0.41785018	     73.28989991	    111.49766794	     70.99565993	     -7.74884604	     25.38979735	     23.69361545	      3.46637045	     74.83841303	    118.24703912	     76.40626635	      3.43744249	     31.23680830
      2.96610169	     -2.74076574	      3.30661613	     85.04893303	      0.20690946	      0.72454659	      0.66378391	      9.05963389	     -1.48510570	      0.05819772	     26.46444919	      0.46189177	     26.09016841	    -13.06205478	      0.00000000	      6.89624370	      0.17704936	     -4.84976549	     25.15462751	      0.43903107	     15.61913226	     -8.31488311	      0.00000000	     -0.02419159	     -0.12150601	      0.39622037	     -0.04492620	     -0.16160299	      0.42098414	     -0.03974436	     -0.29542971	      0.42098414	     -0.02764857	     -0.29542971	      0.34669282	     -0.02246431	     -0.24777505	      0.32192905	     -0.01382307	     -0.18821281	      0.29716528	     -0.17279811	     -1.37450028	      2.20365883	      0.00000000	      0.00000000	      7.43037485	      0.26947124	      5.48470996	     20.51297842	     -0.36850594	     74.18217662	    111.76785034	     70.79893495	     -8.05598263	     25.28885218	     25.70369379	      3.48336556	     75.34002903	    118.44301885	     76.14537665	      3.55550320	     31.21294493
      2.98305085	     -3.09411486	      3.29543278	     85.96762742	      0.20441132	      0.72675645	      0.66536635	      8.23635751	     -2.12768435	     -1.09179750	     24.81165446	      0.43304506	     25.69089819	    -12.16323455	      0.00000000	      6.22636725	      0.98127385	     -3.52774792	     23.43484801	      0.40901526	     13.29793388	    -10.20606053	      0.00000000	     -0.03856555	     -0.15557380	      0.30230960	     -0.07162008	     -0.20691315	      0.32120395	     -0.06335934	     -0.37826214	      0.32120395	     -0.04407657	     -0.37826214	      0.26452090	     -0.03581197	     -0.31724609	      0.24562655	     -0.02203636	     -0.24098382	      0.22673220	     -0.27546987	     -1.75988194	      1.68135528	      0.00000000	      0.00000000	      7.51411920	     -0.08283557	      4.58218406	     22.16415697	     -0.29134038	     75.99612990	    112.39217051	     69.65153062	    -11.66864653	     23.71658700	     28.01221401	      3.51806703	     76.14276809	    118.49157114	     73.83081679	      2.98488176	     30.92307800
